<?xml version="1.0" encoding="UTF-8"?><svg xmlns="http://www.w3.org/2000/svg" xmlns:xlink="http://www.w3.org/1999/xlink" height="504.2" preserveAspectRatio="xMidYMid meet" version="1.0" viewBox="-0.5 -3.9 151.7 504.2" width="151.7" zoomAndPan="magnify"><g id="change1_1"><path d="M127.6,347.2c-1.5,34.3-2.9,68.5-4.4,102.8c-2.2,1.3-6.4,3.4-12.2,3.7c-7.5,0.4-13-2.4-15.2-3.7 c-0.4-17.1-0.8-34.3-1.2-51.4c-0.4-17.1-0.8-34.3-1.2-51.4H127.6z M34.5,347.2c0.4,17.1,0.8,34.3,1.2,51.4c0.6,25.7,1.2,50,1.2,51.4 c1.4,1.1,6.2,4.9,13.4,5c7.7,0.1,12.8-3.9,14.1-5c0.7-17.1,1.4-34.3,2.1-51.4s1.4-34.3,2.2-51.4H34.5z" fill="#E8AF7A"/></g><g id="change2_1"><path d="M64.4,450c-0.4,10.1-0.9,20.2-1.3,30.2H37.7c-0.1-5-0.3-10.1-0.4-15.1c-0.1-5-0.3-10-0.4-15.1 c3.4,0.8,7.7,1.5,12.8,1.6C55.6,451.7,60.6,450.9,64.4,450z M95.8,450c0,0.9,0.3,14.3,0.3,15.1c0,0.9,0.3,14.2,0.3,15.1h25.4 c0.2-5,0.5-10.1,0.7-15.1s0.5-10.1,0.7-15.1c-3.4,0.8-7.7,1.6-12.9,1.7C104.4,451.8,99.5,450.9,95.8,450z" fill="#F3E9DC"/></g><g id="change3_1"><path d="M109.3,475.1c3.8,0,6.8-0.6,7.7-0.8c2.2-0.5,4-1.1,5.3-1.7c-0.1,9-0.1,18-0.2,27c-19.6,0-39.2,0-58.8,0 c-21,0-42.1,0-63.1,0c-0.7-13.1,2.3-17.6,5.2-19.3c5-3,10.1,0.6,17.1,0c3.8-0.3,9-2,15-8.3c2.5,1.2,7,2.9,13,3.1 c5.9,0.1,10.4-1.4,12.9-2.5c0,1.4,0.1,2.7,0.1,4.1c0,1.8,0.1,3.5,0.1,5.3c1.1-0.6,2.9-1.6,5.3-2.5c7.5-2.6,11.8-0.4,18.6-2.5 c2.1-0.7,5.2-1.9,8.7-4.6C99.3,473.6,103.8,475,109.3,475.1z M138.6,38.6c-0.6-1.8-2.2-5.5-7.2-8.8c-0.8-4.6-3-12.8-9.7-19.4 C107.8-3.2,80.1-3.9,69.1,10.7c-1.3,1.7-6.7,9.5-4.2,23.8c10.4,22.2,28.4,36.1,45.6,34.7c7.7-0.6,14-4.6,14.6-5 C132.7,59.3,141.7,48.5,138.6,38.6z" fill="#5E3023"/></g><g id="change4_1"><path d="M89.9,265.6c0.9,0,1.7,0,2.6,0 M92.5,265.6c15.3,0,30.6,0,45.8,0c0,36.4,0,72.7,0,109.1 c-6.2,2-15,4.1-25.8,4.3c-12.4,0.2-22.6-2.2-29.2-4.3c-1.6-24.7-3.2-49.4-4.8-74.2c-0.7,24.7-1.3,49.5-2,74.2 c-5.4,1.9-12.6,3.8-21.1,4.4c-14.5,1.1-26.4-1.9-33.6-4.4c1.1-36.4,2.1-72.7,3.2-109.1c17,0,33.9,0,50.9,0c3.2,0,6.4,0,9.6,0 c1.5,0,2.9,0,4.4,0" fill="#F7D55A"/></g><g id="change5_1"><path d="M99.2,96.3c7.4,1,41.6,6.1,48.2,25.4c1.3,3.8,2,9.6,2.4,13.6c1.4,11.9,0.8,21.9,0.1,28.7 c-4.5,7.5-8.9,15-13.4,22.5l4.1,82.1c-12.4,4.3-29.5,8.6-50,9.6c-29.4,1.5-53.2-4.5-68.2-9.6c2.2-29.4,4.5-58.8,6.7-88.2 c7.1-25.9,14.3-51.7,21.4-77.6C66.7,100.6,82.9,98.5,99.2,96.3z M58.8,92.4c-5.8-0.9-21.4-2.5-30.7,6.9c-4.5,4.6-6,10.9-8.8,23.5 c-2.6,11.4-3.8,21-4.4,27.6c2.1-0.1,4.2-0.3,6.3-0.4c13.8-18.6,27.6-37.2,41.3-55.8C61.3,93.6,60.1,93,58.8,92.4z" fill="#0393C2"/></g><g id="change1_2"><path d="M100.6,88c0,0.4,0,0.8-0.1,1.1 M100.5,89.1c-0.3,5.5-0.6,11-0.9,16.6c-2.4,1.9-7.1,5-13.5,5.6 c-6.3,0.6-11.6-1.4-15.8-3.9c-5.2,18-16.9,54.9-29,66.2c0.8,0.2,1.2,0.4,1.4,0.4c18.5-2,37.6-4.6,57.4-7.9c6.4-1.1,12.7-2.2,19-3.4 c2.5-6.5,8.3-11,15-11.6c8.7-0.7,14.3,5.6,14.9,6.3c0.2,6.4-0.4,16.9-7.2,24.7c-5.8,6.7-14.4,9.5-44.9,11c-13,0.6-30.5,1-51.4,0.2 C30,198,17.8,197,15.3,191.7c-2.1-4.3,2.3-11.1,6.4-14.6c1.6-1.4,3.3-2.3,5-3c-10.4-7.2-9.9-25.1-9.8-28.4c4-3.6,8.1-7.6,12.1-12.1 c13.7-15.3,22.4-31.1,27.9-44.1c-2.2-10.7-2.5-16.3-1-16.9c1.1-0.4,3.1,1.7,6,6.4l0,0c-1.1-3.8-2-8.2-2.4-13 c-1.8-23.8,10.3-41.5,14.7-47.3c2.2,2,6.3,5.2,12.3,7.1c8.2,2.6,15.2,1.2,18.3,0.4c-2.2,7.9-1.1,13,0.5,16.2c1.9,4,5,6.4,6.2,12.1 c0.6,2.9,0.5,5.5,0.3,7.2c0.5-0.5,2.4-2.4,5.4-2.6c2.3-0.2,5.2,0.7,6.5,2.7c3,4.6-3.1,15.7-9.7,15.9c-1.5,0.1-2.8-0.5-3.8-1 c-1.3,1.9-3.2,4.1-5.7,6.2c-1.3,1.1-2.6,2-3.8,2.7c0,0.8-0.1,1.6-0.1,2.4" fill="#E8AF7A"/></g><g id="change3_2"><path d="M65.7,82.9c-0.9-0.1-0.9-1.3,0-1.4c2-0.2,3.7,1,4.3,3c0.3,1.2-1.5,1.7-1.8,0.5C67.8,83.8,66.9,83,65.7,82.9z M75.4,89.6c0.4,1.1,2.1,0.7,1.8-0.5c-0.5-1.6-1.7-2.6-3.3-2.9c-1-0.2-1.5,1.3-0.4,1.6C74.4,88.1,75.1,88.7,75.4,89.6z M115.7,64 c2.2-1.1,5,0.6,4.4,3.2c-0.4,1.8-2.1,2.9-3.4,4.1c-0.7,0.7,0.2,1.9,1.1,1.4c2.4-1.5,5-4.3,4-7.4c-1-2.9-4.2-3.9-6.8-2.5 C114,63.1,114.8,64.4,115.7,64z M27.2,174.5c4.4-1.4,9-1.6,13.4-0.6c0.9,0.2,1.2-1.1,0.4-1.3c-2.5-0.7-5.1-1-7.6-1 c-2.1-1.8-3.8-3.6-4.5-6.4c-0.3-1-1.8-0.6-1.6,0.4c0.5,2.2,1.7,4.6,3.4,6.2c-1.3,0.2-2.6,0.5-4,0.9 C25.6,173.1,26.1,174.9,27.2,174.5z M139.2,177.5c-1.3,0.6-2.2,1.3-3.7,0.8c-1.4-0.5-2.2-1.9-2.2-3.4c0-1.1-1.6-1.1-1.7,0 c-0.1,2.1,1.1,4.2,3.1,5c1.8,0.7,4.7,0.5,5.7-1.4C140.7,177.8,139.9,177.2,139.2,177.5z M16.6,186.3c3.3-3.6,7-6.4,11.7-8.2 c1-0.4,0.6-2.1-0.5-1.7c-4.8,1.7-9.3,4.6-12.5,8.6C14.6,185.9,15.8,187.2,16.6,186.3z M28.2,183.3c1-0.5,0.1-2-0.9-1.5 c-4.1,1.9-9.2,4.4-12.1,8c-0.5,0.7,0.1,1.7,1,1.2c2-1.2,3.8-2.9,5.8-4.2C23.9,185.5,26,184.3,28.2,183.3z M28.8,185.4 c-3.8,2.3-7.5,4.7-11.2,7.1c-1,0.7-0.1,2.2,0.9,1.6c3.8-2.3,7.5-4.8,11.1-7.2C30.6,186.3,29.8,184.8,28.8,185.4z M76.6,279.5 c-1.3,7.8-0.9,15.8,0,23.6c0.1,0.9,1.5,0.9,1.4,0c-0.7-7.8-0.2-15.5,0.2-23.4C78.3,278.8,76.8,278.6,76.6,279.5z M41.3,274.8 c-3.6,12.1-8.8,23.3-16.1,33.6c-0.7,1,0.9,1.9,1.6,1c7.3-10.4,12.8-21.8,16.1-34.1C43.2,274.2,41.6,273.7,41.3,274.8z M115.6,276.2 c2.8,13,9.8,24.3,20.1,32.7c0.5,0.4,1.2,0.4,1.5-0.2c0.2-0.4,0.4-0.7,0.6-1.1c0.6-1-0.9-1.8-1.5-0.9c-0.7,1-11.6-12.9-11.9-13.4 c-3.4-5.5-5.7-11.4-7.2-17.6C116.9,274.7,115.4,275.2,115.6,276.2z M75.8,367.8c-17.4,6.3-35.1,6.4-52.7,0.7 c-0.9-0.3-1.3,1.1-0.4,1.5c17.6,6.3,36,6.1,53.6-0.3C77.5,369.2,77,367.4,75.8,367.8z M137.1,367.9c-17.8,4.8-34.9,4.6-52.9,1.1 c-0.9-0.2-1.3,1.1-0.4,1.4c17.7,4.9,36.1,4.1,53.8-0.6C138.7,369.4,138.2,367.6,137.1,367.9z M45,343.1c2.4-7.5,4.4-15.1,6.7-22.6 c0.3-1-1.2-1.4-1.5-0.4c-2.3,7.5-4.8,15-6.9,22.6C42.9,343.7,44.6,344.2,45,343.1z M55.8,338.1c0.8-2.2,1.3-4.7,1.8-7 c0.3-1-1.3-1.5-1.6-0.4c-0.7,2.3-1.5,4.6-1.9,7C53.9,338.7,55.4,339.2,55.8,338.1z M99.5,351.6c2-9.2,3.5-18.5,5.3-27.8 c0.2-0.9-1.2-1.3-1.4-0.4c-1.9,9.2-4,18.4-5.6,27.7C97.6,352.3,99.3,352.8,99.5,351.6z M111,341.4c0.7-2.5,1-5.1,1.5-7.7 c0.2-1.1-1.5-1.6-1.7-0.5c-0.5,2.6-1.3,5.3-1.5,7.9C109.2,342.2,110.7,342.3,111,341.4z M46.3,383.4c0.2-1.2-1.5-1.7-1.8-0.5 c-0.5,2-3.3,1.9-3.4-0.3c0-1.1-1.7-1.1-1.7,0c0,1.8,1.3,3.5,3.1,3.6C44.4,386.3,46,385.1,46.3,383.4z M99.1,381.8 c-0.7,2.1,0.5,4.6,2.8,5.1c2.1,0.5,4.7-1.2,4.7-3.5c0-1-1.4-1.1-1.7-0.2c-0.4,1.1-1.3,2.2-2.6,2c-1.3-0.3-2-1.8-1.6-2.9 C100.9,381.2,99.4,380.8,99.1,381.8z M63.8,452.9c-8.7,1.2-17.2,1.2-25.9-0.4c-1.2-0.2-1.7,1.6-0.5,1.8c8.9,1.8,17.9,1.9,26.7-0.1 C65,454,64.6,452.8,63.8,452.9z M122.1,452.6c-8.7,1.5-16.8,1.3-25.5-0.4c-0.9-0.2-1.3,1.2-0.4,1.4c8.5,2.5,17.6,2.6,26.3,0.7 C123.6,454.1,123.1,452.4,122.1,452.6z M66.2,35.7c3.3,0.1,6.5,0.8,9.4,2.3c0.8,0.4,1.6-0.8,0.8-1.3c-3.1-1.8-6.5-2.9-10.2-2.9 C65,33.8,65,35.7,66.2,35.7z M87,41c4.4-0.2,8.6,1.2,11.8,4.3c0.9,0.8,2.2-0.5,1.3-1.3c-3.6-3.4-8.2-5.1-13.1-4.6 C86,39.5,86,41.1,87,41z M69.5,52.5c0.1,0.1,0.1,0.2,0.3,0.3c1.9,1.3,3.9,2.3,5.9,3.5c0.9,0.5,1.6-0.8,0.8-1.4 c-1.8-1.1-3.5-2.4-5.4-3.4c3.6-4.5,7.4-9.1,10.3-14c0.5-0.8-0.6-1.7-1.3-1c-4.1,4.4-7.5,9.9-11,14.9C68.8,51.7,69.1,52.3,69.5,52.5z M90.8,88c3.1,1,6.9-0.4,9.7-1.8c0.8-0.4,0.1-1.6-0.7-1.2c-1.6,0.7-3.3,1.1-5,1.3c-0.8,0.1-1.6,0.1-2.5,0.1c0.1-0.1,0.3-0.3,0.4-0.4 c0.3-0.3,0.3-0.7,0.1-1c0-0.1,0-0.3-0.1-0.4c-6.1-11.7-21.3-14.5-31.3-6c-0.7,0.6,0.3,1.5,1,1c4.2-3.4,9.3-4.7,14.2-4 c-2.5,1.2-4.8,2.7-6.8,4.4c-0.6,0.6,0.2,1.5,0.9,1.1c3-1.6,6-3.3,9-4.9c0.4,0.1,0.9,0.3,1.3,0.4c-2.3,1.5-4.5,3-6.7,4.6 c-0.9,0.6-0.1,2.1,0.9,1.5c2.6-1.7,5.3-3.4,7.8-5.2c0.8,0.4,1.5,0.8,2.2,1.3c-2.9,1.4-5.7,3-8.3,4.9c-0.9,0.6-0.1,2.1,0.9,1.5 c2.8-1.9,5.8-3.6,8.9-5.1c0,0,0.1,0,0.1-0.1c0.6,0.5,1.1,1,1.6,1.6c-2.8,1.5-5.5,3-8.2,4.5c-0.9,0.5-0.1,1.9,0.8,1.4 c2.9-1.5,5.7-2.9,8.5-4.5c0.5,0.7,1,1.5,1.4,2.3c-7.3,6.9-14.4,14.1-21.4,21.4c-0.8,0.8,0.4,2.1,1.3,1.3 C77.7,101.4,84.4,94.8,90.8,88C90.8,87.9,90.8,88,90.8,88z M65,63.9c4.9,0.4,9.4,2.2,13.1,5.5c0.7,0.6,1.7-0.4,1-1 c-3.8-3.9-8.7-6.1-14.1-6.3C63.8,62,63.9,63.9,65,63.9z M68.5,66.5c-0.8,0.1-0.8,1.4,0,1.6c1.1,0.2,2.2,0.1,3.2,0.1 c1.1,0,1.1-1.6,0-1.7C70.6,66.5,69.6,66.4,68.5,66.5z" fill="#5E3023"/></g><g id="change3_3"><path d="M91.5,46.7c0.1,1.1-0.8,2.4-1.7,3c-0.4,0.2-0.8,0.4-1.3,0.4s-0.9-0.2-1.2-0.5C87,49.3,87,48.8,87,48.3 s0.3-0.8,0.5-1.2c0.4-0.6,0.9-1.2,1.6-1.5C90.1,45.3,91.4,45.6,91.5,46.7z M68.6,39.9c-0.7,0.3-1.2,0.9-1.6,1.5 c-0.2,0.4-0.4,0.8-0.5,1.2s0,0.9,0.3,1.3c0.3,0.4,0.8,0.5,1.2,0.5c0.5,0,0.9-0.2,1.3-0.4c0.9-0.6,1.8-1.9,1.7-3 C70.8,39.9,69.5,39.5,68.6,39.9z" fill="#5E3023"/></g><g id="change2_2"><path d="M69.2,113c13.5,4.5,35.9,4.1,37.2-14.8c0.1-1.2,2-1.2,1.9,0c-1.3,19.6-24.8,22.2-39.5,16.3 C67.9,114.1,68.3,112.7,69.2,113z M16.7,140.1c2.6-0.8,5.2-1.8,7.8-2.7c0.9-0.3,0.5-1.6-0.4-1.4c-2.6,0.7-5.3,1.4-7.9,2.3 C15.1,138.6,15.6,140.4,16.7,140.1z M150.3,150.5c-10.3-6.2-22.4-4.9-31.3,2.6c-0.3-8.7-0.5-17.3-0.9-26c0-1.1-1.7-1.1-1.7,0 c0.2,9.2,0.5,18.5,0.8,27.7c-0.1,0.2-0.1,0.4,0,0.5c0.1,1.6,0.1,3.1,0.2,4.7c0,1.2,1.9,1.2,1.9,0c0-1.7-0.1-3.4-0.2-5.1 c8.7-7.7,20.1-8.5,30.4-3C150.4,152.6,151.2,151.1,150.3,150.5z M139.3,259.8c-37.6,12.5-76.8,13.2-114.5,0.3 c-1.1-0.4-1.6,1.4-0.5,1.8c37.5,12.8,78.1,13.1,115.3-0.9C140.4,260.7,140.1,259.5,139.3,259.8z M121.5,495 c-20.4-1.8-41-1.7-61.5-0.9c0-4.5,0.3-9.4,3.6-12.1c0.7-0.6-0.2-1.9-1-1.3c-4.4,3.2-4.5,9-4.5,14.3c0,0.1,0,0.2,0,0.3 c0,0.1,0,0.2,0,0.3c-18.5-1.6-37.1-1.1-55.5,0.1c-1.2,0.1-1.2,2,0,1.9c18.5-1.3,37-1.1,55.5-0.6c0,0.7,0,1.5,0,2.1 c0,1.2,1.8,1.2,1.9,0c0-1,0-2.1,0-3.2c20.5-0.8,41-0.3,61.5,0.3C122.3,496.3,122.3,495,121.5,495z M69.8,156.3 c3.6-7.2,7.1-14.5,10.7-21.8c0.5-1-1-1.9-1.5-0.9c-3.6,7.2-7.3,14.4-10.8,21.7C67.7,156.4,69.2,157.3,69.8,156.3z M86.9,148.9 c0.8-0.9,1.1-2.1,1.5-3.2c0.4-1.1-1.3-1.5-1.7-0.5c-0.4,1-1,2.1-1.1,3.2C85.6,149,86.5,149.4,86.9,148.9z M24.6,252.8 c-1.1-0.4-1.6,1.4-0.5,1.8c37.5,12.8,78.1,13.1,115.3-0.9c0.8-0.3,0.5-1.5-0.3-1.3C101.5,265,62.3,265.7,24.6,252.8z M19.2,479 c-0.9-0.5-1.6,0.8-0.8,1.3c2.8,1.9,4.6,4.3,6.5,6.9c0.7,0.9,2,0.2,1.5-0.9C25,483.2,22.1,480.7,19.2,479z M24.8,478.3 c-0.8-0.6-1.5,0.7-0.8,1.3c2.2,1.7,3.9,3.8,5.4,6.1c0.7,1,2.2,0.1,1.6-0.9C29.6,482.1,27.3,480,24.8,478.3z M35.9,483 c-1.8-2.2-3.9-4.2-5.8-6.3c-0.7-0.8-1.8,0.4-1.1,1.1c1.9,2.2,3.6,4.4,5.6,6.5C35.4,485.2,36.6,483.9,35.9,483z M74.1,479.1 c-0.8-0.5-1.4,0.7-0.7,1.2c2.2,1.6,4.1,3.7,5.9,5.8c0.7,0.8,2.1-0.3,1.4-1.1C78.9,482.6,76.7,480.7,74.1,479.1z M81.1,479.1 c-0.9-0.4-1.6,0.8-0.8,1.3c2.2,1.2,3.9,3.1,4.9,5.3c0.5,1.1,2.1,0.1,1.6-0.9C85.6,482.2,83.7,480.3,81.1,479.1z M93.1,484.5 c0.7,0.3,1.5-0.4,1.1-1.1c-0.7-1.3-2.1-2.2-3.1-3.2c-1.2-1.1-2.4-2.1-3.6-3.2c-0.7-0.7-1.8,0.4-1.1,1.1c1.1,1.1,2.2,2.3,3.4,3.4 C90.8,482.5,91.8,483.9,93.1,484.5z" fill="#F3E9DC"/></g></svg>