<?xml version="1.0" encoding="UTF-8"?><svg xmlns="http://www.w3.org/2000/svg" xmlns:xlink="http://www.w3.org/1999/xlink" height="502.1" preserveAspectRatio="xMidYMid meet" version="1.0" viewBox="-6.7 -2.1 215.3 502.1" width="215.3" zoomAndPan="magnify"><g id="change1_1"><path d="M138.3,47.5c-2.2,0-4.3,0-6.5,0 M131.8,47.5c-7.4,0-14.8,0-22.1,0c-12.5,0-24.9,0-37.4,0 c-6.5-17.6-1.2-35.4,10.8-42.8c9.1-5.6,19.4-3.5,22.7-2.7c3.4-1.2,13.2-4.1,22,0.6c12.2,6.5,18.1,25.6,10.5,44.9" fill="#5E3023"/></g><g id="change2_1"><path d="M150.3,386.4c-0.6,30.5-1.1,61.1-1.7,91.6c-7,0-13.9,0.1-20.9,0.1c-3.3-30.1-6.6-60.1-9.9-90.2 C128.7,387.4,139.5,386.9,150.3,386.4z M51.4,386.6c0.6,30.5,1.1,60.9,1.7,91.4c7,0,13.9,0.1,20.9,0.1c3.3-30.1,6.6-60.1,9.9-90.2 C73,387.4,62.2,387,51.4,386.6z" fill="#E8AF7A"/></g><g id="change3_1"><path d="M136.3,268.6c2.5-0.1,4.9-0.2,7.3-0.3 M143.6,268.3c5-0.2,9.9-0.5,14.7-0.9c2.5,40.3,4.9,80.7,7.4,121 c-5.9,2.6-17.2,6.5-31.6,5.7c-10.2-0.6-18.3-3.4-23.6-5.7c-2.2-25.8-4.3-51.6-6.5-77.3c-2.8,25.8-5.6,51.6-8.4,77.3 c-5.6,2.4-13.9,5.2-24.1,6c-16.4,1.3-29.3-3.1-36-6c3.9-40.9,7.8-81.9,11.7-122.8c15.6,1.7,32.5,2.8,50.4,3.2 c13.5,0.3,26.4,0.2,38.7-0.2" fill="#0393C2"/></g><g id="change2_2"><path d="M135.7,60.6c-1.2,0.6-2.4,0.6-3.5,0.5c-3,13.2-9.3,23.2-16,28.7c0.2,1.3,0.6,2.8,1.5,4.3 c1.4,2.3,3.2,3.5,4.2,4c0.8,10.3-7.7,18.7-16.8,18.2c-8.5-0.4-15.9-8.4-15.3-18c0.9-0.4,2.9-1.5,4.3-3.7c0.9-1.4,1.3-2.8,1.4-4 c-6.8-5.3-13.3-15.8-16-29.7c-1.2,0.3-2.9,0.4-4.5-0.4c-4.5-2.2-6-10.3-2.7-13.2c1.7-1.5,4.4-1.2,5.8-0.9c3.6-0.8,8.1-2.6,11.6-6.4 c5.6-6,5.1-13.4,9.8-14.9c2.5-0.8,5.2,0.5,7,1.7c1.8-1.4,4.4-3,6.9-2.3c3.7,1,4.3,6.2,7.8,11.4c2.1,3.1,5.7,7.1,12.5,10.3 c1.4-0.2,3.3-0.1,4.6,1.1C141.6,50.3,140.2,58.5,135.7,60.6z M159.4,171.9c6.2,31.7,12.4,63.4,18.5,95.1 c-1.6,14.4-1.5,21.8,0.5,22.3c1.1,0.2,2.6-1.5,4.7-5.2c12.1,9.1,19.5,12.8,22.2,10.8c3.3-2.3-0.3-12.7-10.7-31.1 c-1.4-33.4-2.7-66.7-4.1-100.1C180.2,166.5,169.8,169.2,159.4,171.9z M31.4,184.7c-11.9,6.6-19.1,6.8-23.4,4.6 c-14.7-7.6-6.5-47.2,4.4-83c-6.1-8.5-4.8-18.4,1-22.8c4.5-3.4,10.5-2.7,12.2-2.4c0.6-4.6,1.2-9.2,1.7-13.8c1-0.3,1.9-0.3,2.5,0 c5.6,2.1,2.9,20.4-1.5,39.1c-0.7,11-1.3,22.1-2,33.1C28.1,154.5,29.8,169.6,31.4,184.7z" fill="#E8AF7A"/></g><g id="change4_1"><path d="M160.9,254.5c0,1.9,0,3.9,0,5.8 M160.9,260.4c0,3.4-0.1,6.7-0.1,10.1c-15.5,2.2-34.1,3.8-55.1,3.4 c-23.5-0.4-43.9-3.1-60.6-6.3c0.8-29.6,1.6-59.2,2.4-88.8c-5.2,2.7-10.3,5.4-15.5,8.1c-1.8-6.5-3.4-13.9-4.4-22.1 c-1.2-9.5-1.5-18.2-1.2-25.7c4.1-6,10.3-13.7,19.5-20.9c16.6-13.1,34.1-18,43.8-20.1c0.6,0.8,6,8,15.6,8.2 c10.2,0.2,16.1-7.7,16.6-8.4c9.1,1.9,37.4,8.9,56,31c7.5,8.9,11.7,18.2,12.1,19.2c6.3,14,6.8,26.3,6.8,31.3 c-3.7,2.5-9.7,5.9-17.8,8.1c-7.1,1.9-13.2,2.3-17.6,2.3c-0.2,21.6-0.3,43.2-0.5,64.7" fill="#F75A0D"/></g><g id="change5_1"><path d="M148.7,472.7c7.2,7.9,13.9,10.9,18.9,12.1c7.4,1.8,13.4,0.2,17.3,4.4c2.8,3,3.1,7.5,2.8,10.8 c-20.6,0-41.3,0-61.9,0c-0.5-3.9-0.8-8.6-0.6-13.9c0.2-5.3,1-9.9,1.8-13.7c1.4,0.4,3.1,0.9,5.2,1.2c0.7,0.1,2.9,0.4,6.1,0.4 C140.9,474,144.5,473.7,148.7,472.7z M53,472.6c-7.1,8-13.9,11-18.9,12.2c-7.4,1.8-13.4,0.2-17.3,4.4c-2.8,3-3.1,7.5-2.8,10.8 c20.6,0,41.3,0,61.9,0c-0.3-4.5-0.5-9-0.7-13.6c-0.2-4.7-0.4-9.4-0.6-14c-1.4,0.5-3.3,1-5.4,1.3c-0.7,0.1-3.1,0.5-6.3,0.4 C60.5,474,57,473.7,53,472.6z" fill="#F3E9DC"/></g><g id="change5_2"><path d="M127.8,174c0,13.3-10.8,24.2-24.2,24.2c-13.3,0-24.2-10.8-24.2-24.2c0-13.3,10.8-24.2,24.2-24.2 C117,149.9,127.8,160.7,127.8,174z M104.8,144.9c0.1-4.2,0.6-8.9,0-13c-0.1-0.6-1.1-0.6-1.3,0c-0.7,4.1-0.3,8.8-0.2,13 C103.2,145.9,104.7,145.9,104.8,144.9z M74,177.3c-4.4-0.2-8.8-0.6-13.2-0.5c-1,0-1,1.5,0,1.6c4.4,0.4,8.8,0.3,13.2,0.4 C74.9,178.7,74.9,177.4,74,177.3z M145.4,176.5c-4.2-0.5-8.8-0.2-13-0.1c-0.8,0-0.8,1.2,0,1.3c4.3,0.2,8.8,0.7,13,0.2 C146.3,177.8,146.3,176.6,145.4,176.5z M100.3,205.2c-0.4,4.7-1,9.5-0.9,14.2c0,1,1.4,0.9,1.5,0c0.6-4.7,0.6-9.5,0.7-14.2 C101.7,204.3,100.4,204.3,100.3,205.2z M80.3,149.4c1,1.1,2,2.1,3,3.2c0.6,0.6,1.5-0.3,1-1c-1-1.1-2-2.2-2.9-3.2s-1.8-2.1-2.9-2.9 c-0.5-0.4-1.2,0.4-0.9,0.9C78.4,147.4,79.4,148.4,80.3,149.4z M128.4,145.3c-2.1,1.9-4.1,4-6.1,6c-0.6,0.6,0.3,1.4,0.9,0.9 c2.1-1.9,4.3-3.8,6.3-5.8C130.3,145.7,129.2,144.5,128.4,145.3z M82.3,195.7c-2.2,1.9-4.4,3.9-6.5,5.9c-0.2,0-0.4,0.1-0.5,0.3 c0,0,0,0.1-0.1,0.1c-0.2,0.4-0.1,0.9,0.3,1.1c0,0,0.1,0,0.1,0.1c0.3,0.2,0.7,0.1,1-0.1c2.3-2.1,4.5-4.2,6.7-6.3 C84,196.1,83,195.1,82.3,195.7z M124.2,196.6c-0.7-0.8-1.7,0.3-1.1,1.1c1.6,2.1,3.2,4.4,5.1,6.2c0.6,0.6,1.7-0.2,1.2-0.9 C128,200.7,125.9,198.7,124.2,196.6z" fill="#F3E9DC"/></g><g id="change5_3"><path d="M106.6,279.3c0,0.1,0.1,0.2,0,0.3c-0.7,10.3-1.4,20.7-2.2,31c-0.1,0.8-1.3,0.8-1.2,0 c0.5-10.4,1.1-20.7,1.8-31c0-0.1,0.1-0.3,0.1-0.4c-13.3-0.4-26.6-1.7-39.7-3.9c-3.5,16-11.1,30.4-21.9,42.7 c-0.7,0.8-1.9-0.4-1.2-1.2C53,304.6,60,290.7,64.1,275.1c-5.4-0.9-10.7-2-16-3.2c-1-0.2-0.6-1.8,0.4-1.6c36.2,8.3,72.5,8.9,109.2,4 c0.7-0.1,1,1,0.3,1.1c-5.7,1-11.5,1.9-17.3,2.5c-0.7,16.1,6.7,30.8,20,39.9c0.9,0.6,0,2-0.8,1.4c-13.7-9.3-21.5-24.5-20.8-41.1 C128.3,279.1,117.5,279.5,106.6,279.3z M95.2,385.3c-19.4,7.7-39.1,7.5-58.8,0.5c-0.9-0.3-1.2,1-0.4,1.4c19.3,7.9,40.3,7.4,59.6-0.2 C96.6,386.5,96.2,384.9,95.2,385.3z M164.5,385.8c-17.6,6.9-35.2,6.8-52.7-0.2c-0.7-0.3-1.3,1-0.5,1.3c17.3,7.7,36.4,7.7,53.9,0.3 C165.9,386.8,165.3,385.4,164.5,385.8z M59.6,350.6c1.5-9.3,3.1-18.6,4.5-27.9c0.1-0.9-1.3-1.4-1.5-0.4c-1.6,9.3-3.1,18.6-4.6,27.9 C57.8,351.2,59.4,351.6,59.6,350.6z M71.8,338.2c0.6-2.7,0.6-5.6,0.8-8.3c0.1-0.9-1.4-0.9-1.5,0c-0.3,2.7-0.9,5.4-0.8,8.1 C70.4,338.8,71.6,339,71.8,338.2z M133.9,317.9c2.1,11,4.1,22.1,6.7,33c0.2,0.9,1.6,0.5,1.4-0.4c-1.9-11-4.5-22-7-32.9 C134.9,316.8,133.8,317.1,133.9,317.9z M124.9,329.9c0.1,2.6-0.1,5.3,0.2,7.9c0.1,1,1.5,1,1.6,0c0.1-2.6-0.2-5.3-0.4-7.9 C126.2,329,124.9,329,124.9,329.9z" fill="#F3E9DC"/></g><g id="change1_2"><path d="M94.9,52.1c0,1.6-0.9,2.9-2,2.9s-2-1.3-2-2.9c0-1.6,0.9-2.9,2-2.9C94,49.2,94.9,50.5,94.9,52.1z M115.5,49.2 c-1.1,0-2,1.3-2,2.9c0,1.6,0.9,2.9,2,2.9s2-1.3,2-2.9S116.6,49.2,115.5,49.2z" fill="#5E3023"/></g><g id="change1_3"><path d="M96.6,90.9c6.3,2.3,12.6,2.2,18.5-1.1c0.9-0.5,1.7,0.9,0.8,1.4c-6,3.5-13.5,4.1-19.8,0.8 C95.5,91.7,96,90.7,96.6,90.9z M74.1,55.3c-0.3-1.2-0.5-2.5-0.5-3.8c0-0.6,0.1-1.4,0.7-1.7c0.6-0.4,1.5-0.1,2.2,0.1 c0.6,0.2,0.9-0.8,0.3-1c-1.5-0.5-3.3-0.8-4.2,0.9c-0.9,1.7-0.6,4.3,0,5.9C72.9,56.6,74.3,56.3,74.1,55.3z M134.7,49.7 c1.3-0.2,2.2,0.9,2.4,2.1c0.2,1.2-0.3,2.4-0.6,3.6c-0.2,1,1.1,1.3,1.5,0.4c0.7-1.7,1.1-3.9,0.2-5.6c-0.8-1.4-2.3-2-3.8-1.6 C133.7,48.8,134,49.9,134.7,49.7z M162.1,188.2c0-0.6-0.1-1.3-0.1-1.9c12.3-0.4,23.8-4.2,34.2-10.8c0.9-0.6,0.1-2-0.8-1.4 c-10.3,6.5-21.4,9.9-33.5,10.9c-0.8-11.1-1.6-22.2-2.5-33.3c-0.1-0.9-1.5-0.9-1.4,0c0.8,12.2,1.6,24.4,2.5,36.7 C160.5,189.3,162.2,189.3,162.1,188.2z M47.7,177.8c2.1-11.3,3.6-22.8,5.2-34.2c0.1-0.9-1.2-1.3-1.4-0.4 c-1.9,11.4-3.9,22.9-5.4,34.3C46.1,178.5,47.6,178.7,47.7,177.8z M16.4,93.6c0.6,0.5,1.3,0.7,2,0.5c-1.2,1.1-2.5,2.1-3.8,3.2 c-0.7,0.6,0.2,1.8,1,1.3c2-1.4,3.7-3.1,5.3-5c1.1,0.4,2.4-0.3,3.1-1.5c1.6-3,1.8-7.4,2.1-10.7c0.1-1.1-1.6-1.1-1.7,0 c-0.2,2-0.4,4-0.8,6c-0.1,0.5-1.1,6.1-2.7,4.7c1.6-2.9,1.6-7.1,1.7-10.3c0-1.1-1.6-1.1-1.7,0c-0.1,2-0.3,4-0.6,5.9 c-0.2,1.2-1,6.3-3.2,4.8c0-0.1,0.1-0.1,0.1-0.2c1.4-2.9,1.7-7,1.8-10.2c0-1.1-1.6-1.1-1.7,0c-0.1,1.8-0.2,3.6-0.5,5.3 c-0.1,0.8-0.3,1.6-0.5,2.4s-0.7,3.4-2.2,2.9c1-2.9,0.9-7.5,0.9-9c0-1.1-1.7-1.1-1.7,0c0,1.3,0,10.6-2.2,10.2 c-0.8-0.2-1.2,1.1-0.4,1.3c1.2,0.4,2.1-0.2,2.7-1.2C14.6,94.5,15.6,94.3,16.4,93.6z M21.1,96.5c-0.5,0.6-1,1.1-1.2,1.9 c-0.2,0.6,0.5,1.1,1,0.8c0.6-0.4,1-1.1,1.5-1.7C22.9,96.7,21.7,95.8,21.1,96.5z M197,280c-0.4-0.7-1.4-0.1-1.1,0.6 c2.4,4.8,4.9,9.6,7.5,14.2c0.5,0.9,1.9,0.1,1.4-0.8C202.4,289.3,199.7,284.7,197,280z M193.1,282.3c-0.5-0.7-1.6-0.1-1.2,0.7 c2.2,3.8,4.4,7.5,6.7,11.2c0.6,0.9,2,0.1,1.4-0.8C197.8,289.6,195.5,285.9,193.1,282.3z M206.3,289.8c-1.7-3.8-3.9-7.4-5.9-11.1 c-0.5-0.8-1.6-0.1-1.2,0.7c1.8,3.7,3.6,7.6,5.8,11.2C205.5,291.5,206.8,290.7,206.3,289.8z M189.8,276.9c-0.5,0.2-0.9,0.4-1.3,0.8 c-0.6,0.5,0.1,1.3,0.7,1.2c0.5-0.1,0.9-0.3,1.4-0.6C191.5,277.8,190.7,276.5,189.8,276.9z M195.1,274.5c-0.4,0.3-0.8,0.6-1.1,0.9 c-0.6,0.6,0.1,1.6,0.9,1.2c0.4-0.2,0.8-0.5,1.2-0.8C196.8,275.2,195.8,273.9,195.1,274.5z M75.5,496.5c-15.8,0.5-31.5,0.7-47.2,0.3 c-0.3-3.7-1-7.4-2.5-10.9c-0.3-0.8-1.5-0.5-1.3,0.4c1,3.5,1.8,6.9,2.1,10.5c-4-0.1-8-0.2-12-0.4c-1.1-0.1-1.1,1.6,0,1.7 c20.3,0.9,40.6,1.1,60.9-0.4C76.2,497.5,76.2,496.5,75.5,496.5z M52.3,475.4c7.1,2.2,15.2,2.1,22-0.9c0.7-0.3,0.2-1.5-0.5-1.3 c-7.2,2.2-13.8,2.7-21.2,0.9C51.9,474,51.5,475.2,52.3,475.4z M34.7,484.9c0.6,0.8,1.2,1.6,1.7,2.5c0.5,0.8,0.8,1.7,1.3,2.5 s1.6,0.3,1.4-0.6c-0.4-2-1.9-4-3.3-5.5C35.1,483,34.1,484.1,34.7,484.9z M41,485.6c0.5,0.7,0.9,1.7,1.6,2.3c0.6,0.5,1.3,0,1.2-0.7 c-0.1-1-1-2-1.6-2.7c-0.7-0.9-1.4-1.6-2.2-2.3c-0.7-0.6-1.7,0.3-1,1C39.7,484,40.4,484.8,41,485.6z M45.9,486.9 c0.4,0.8,1.7,0.2,1.4-0.6c-0.3-1.2-1-2.3-1.7-3.3c-0.6-0.8-1.4-1.9-2.4-2.1c-0.3-0.1-0.6,0.2-0.5,0.5c0.3,1,1.1,1.8,1.6,2.6 C45,484.9,45.4,485.9,45.9,486.9z M187.5,497.1c-3.8-0.3-7.5-0.5-11.3-0.6c0.4-3.5,1.6-6.6,3.8-9.3c0.6-0.8-0.4-1.9-1.1-1.1 c-2.6,2.9-4,6.5-4.3,10.3c-16-0.6-32.1-0.2-48.1,1.1c-1,0.1-1,1.6,0,1.5c20.3-1.1,40.6-1.2,60.9-0.8 C188.3,498.2,188.3,497.1,187.5,497.1z M127.9,473.7c-1-0.3-1.5,1.3-0.4,1.6c7.2,2.2,14.6,2.4,21.8,0c0.7-0.2,0.4-1.3-0.3-1.1 C141.8,475.8,135,475.8,127.9,473.7z M163.1,490.6c2-1.5,4-3.2,5.8-4.9c0.8-0.7-0.3-1.7-1.1-1.1c-1.9,1.5-3.9,3.1-5.7,4.7 C161.5,490,162.4,491.2,163.1,490.6z M159,480.7c-1.8,0.5-3.5,1.3-4.9,2.6c-0.7,0.6,0.2,1.8,1,1.3c1.4-1,2.7-1.9,4.3-2.5 C160.2,481.7,159.9,480.5,159,480.7z M158.9,486.9c1.4-1,2.8-2.1,4.3-3c0.8-0.5,0.1-1.7-0.7-1.3c-1.6,0.8-3.2,1.8-4.5,3 C157.3,486.3,158.2,487.5,158.9,486.9z M60.7,399.2c0.5-0.9-0.9-1.8-1.4-0.8c-1.3,2.2-4.3,1.6-4.8-0.8c-0.2-0.9-1.6-0.5-1.4,0.4 C53.7,401.8,58.8,402.5,60.7,399.2z M148.9,397.4c0.5-0.9-0.9-1.8-1.4-0.8c-0.7,1.1-1.4,2.3-2.7,2.8c-1.5,0.6-3.4,0-3.5-1.8 c-0.1-0.8-1.2-0.8-1.3,0c-0.2,2.1,1.5,3.7,3.6,3.8C146,401.3,147.9,399.4,148.9,397.4z M127.5,100c0.6-0.9-0.9-1.7-1.4-0.8 c-9.8,15-29.5,14.7-39.9,0.6c-0.6-0.8-1.8-0.1-1.3,0.8C95.3,116.5,117.3,115.6,127.5,100z M35.9,185.1c-3.5-15.4-5.8-30.9-7.7-46.5 c-0.1-0.9-1.5-0.9-1.5,0c1.2,15.8,4,31.5,7.5,47C34.5,186.6,36.2,186.1,35.9,185.1z M159.7,265.3c-37.8,5.1-75.6,3.8-112.7-4.9 c-1-0.2-1.5,1.4-0.4,1.6c37.3,8.7,75.6,10.5,113.5,4.5C160.8,266.3,160.4,265.2,159.7,265.3z M101.7,66.2c2.4,0.4,4.9,0.7,7.3,0.7 c0.8,0,0.9-1.1,0.2-1.3c-2-0.7-4.3-0.7-6.4-1c0.2-6.6,1.4-12.9,2.8-19.4c0.2-0.9-1-1.2-1.3-0.4c-2.2,6.4-3,13.3-3.2,20 c0,0.1,0,0.2,0.1,0.3C101,65.7,101.2,66.1,101.7,66.2z M96.5,72.2c-0.3-0.5-0.1-1.3,0.6-1.3c5.1,0.6,10.1,0.4,15.2-0.3 c0.2-0.1,0.3-0.1,0.5-0.1l0,0c0.7-0.1,1.1,0.9,0.6,1.2c-1.6,4.8-4.3,10.2-10.2,9.6C98.5,80.9,95.8,76.6,96.5,72.2z M98.1,72.7 c-0.5,4.3,3.2,8.1,7.6,6.9c3.4-0.9,4.8-4.3,5.9-7.4C107.1,72.9,102.6,73.1,98.1,72.7z M88.8,62.9c-0.3,0.9-0.7,1.7-0.7,2.6 c0,0.8,0.9,0.9,1.3,0.4c0.5-0.7,0.7-1.7,1-2.5C90.7,62.3,89.2,61.9,88.8,62.9z M92.3,65.3c0.3-0.4,0.5-1,0.7-1.5 c0.4-1-1.2-1.4-1.6-0.4c-0.2,0.5-0.4,1-0.4,1.6C90.9,65.7,91.9,65.9,92.3,65.3z M119.4,62.9c-0.2,0.6-0.5,1.2-0.7,1.8 c-0.2,0.8,1,1.4,1.4,0.6c0.4-0.6,0.6-1.3,0.8-2C121.4,62.3,119.8,61.9,119.4,62.9z M121.7,63.3c-0.3,0.6-0.6,1.2-0.6,1.8 s0.8,0.9,1.2,0.5c0.4-0.4,0.6-0.9,0.8-1.5C123.6,63.1,122.2,62.3,121.7,63.3z M88.6,47.1c2.7-2.9,6.5-4,10.3-2.9 c0.8,0.2,1.2-1,0.4-1.3c-4.2-1.5-8.9-0.4-11.9,3C86.7,46.7,87.9,47.9,88.6,47.1z M112.9,43.8c3.9-0.9,7.3,0.2,10.5,2.5 c0.7,0.5,1.6-0.6,1-1.2c-3.1-3-7.8-3.7-11.8-2.5C111.7,42.7,112.1,44,112.9,43.8z" fill="#5E3023"/></g></svg>