<?xml version="1.0" encoding="UTF-8"?><svg xmlns="http://www.w3.org/2000/svg" xmlns:xlink="http://www.w3.org/1999/xlink" height="501.5" preserveAspectRatio="xMidYMid meet" version="1.0" viewBox="-0.3 -1.4 140.7 501.5" width="140.7" zoomAndPan="magnify"><g id="change1_1"><path d="M83.6,489.7c0.1-8.6,0.3-17.1,0.4-25.7l-3.4-81l27.9-4.7l-5.1,90.9c3.1,3.3,6.9,7.1,11.7,10.7 c6.3,4.8,12.4,8.1,17.4,10.4C116.2,490.1,99.9,489.9,83.6,489.7z M30.5,378.3l5.1,90.9c-3.1,3.3-6.9,7.1-11.7,10.7 c-6.3,4.8-12.4,8.1-17.4,10.4c16.3-0.2,32.6-0.4,48.9-0.6c-0.1-8.6-0.3-17.1-0.4-25.7l3.4-81L30.5,378.3z" fill="#E8AF7A"/></g><g id="change2_1"><path d="M85.2,57.5c0.8,0.4,1.6,0.9,2.6,1.5 M87.7,59c2.8,1.8,6.1,4.4,9.1,8.3c6.8,9,7.1,18.7,7,21.8 c-20.1-0.3-40.2-0.7-60.3-1c-0.1-3.5,0.1-12.8,6.3-21.8c3.8-5.5,8.3-8.7,11.2-10.4C48.7,34.2,48.4,13,58,4.8C62.6,0.9,69,0.2,70.5,0 c13.7-1.4,24.4,9,27,11.7c4.4-1.4,6.9-0.8,8.4,0.1c6.6,3.9,5.6,20.6-1.5,31.2C97.7,52.8,86.9,55.7,83,56.5c0.6,0.3,1.4,0.6,2.2,1" fill="#5E3023"/></g><g id="change3_1"><path d="M71,80.1c1.9,0,3.7-0.1,5.6-0.1 M76.6,80c1.3,0,2.7-0.1,4-0.1c8.9,1.8,37.3,8.7,48.8,31 c4.6,8.9,6.9,21.1,7.9,26c2.1,11.3,2.5,20.9,2.4,27.8c-3.5,0.7-7,1.5-10.5,2.2c-3.9,6.4-7.8,12.8-11.6,19.1 c4.2,63.6,8.4,127.1,12.6,190.7c-15.6,5.2-39.6,11.1-69.1,10.2c-22.5-0.6-41.2-5-54.8-9.3c8.2-74.4,16.4-148.9,24.5-223.3 c-4.9,1.5-9.8,3.1-14.6,4.6c-2.8-6.2-6.5-15.5-9.2-27.1c-2.2-9.4-3.6-15.1-2.9-19.8c3.2-21.8,50.7-30.8,54.8-31.5 c4-0.2,8.1-0.3,12.1-0.4" fill="#F75A0D"/></g><g id="change4_1"><path d="M75.7,77.8c0.6,0,1.2,0.1,1.8,0.1 M77.5,77.9c4.6,0.3,7.4,1,9,3.4c2.9,4,1.1,10.1-1.3,13.7 c-1.9,2.9-6.1,6.5-9.3,5.8c-3.7-0.8-6.8-5.9-5.9-12.1c-0.4,7.3-4.5,12.4-8.5,12.7c-3.8,0.3-7.8-4.8-9.4-8c-0.9-1.7-3.5-7-1.4-11 c2.6-5.3,11.6-5,21.5-4.7c1.3,0,2.4,0.1,3.5,0.1" fill="#F3E9DC"/></g><g id="change5_1"><path d="M138,493.1c0.5,1.1,1.2,3.2,0.8,6.2c-14.4,0.2-28.7,0.4-43.1,0.6c-1-2.1-2-4.1-3-6.2 c-0.8,2.1-1.7,4.1-2.5,6.2c-2.9,0.1-5.8,0.1-8.7,0.2c0.4-6,0.8-12,1.2-18C83.1,476,83.6,470,84,464c0.5,1,1.3,2.5,2.4,4.3 c1.5,2.4,11.5,17.7,27,18.5c2,0.1,5.2-0.1,9.3-1.6C129.8,484.9,135.8,488,138,493.1z M0.9,493.1c-0.5,1.1-1.2,3.2-0.8,6.2 c14.4,0.2,28.7,0.4,43.1,0.6c1-2.1,2-4.1,3-6.2c0.8,2.1,1.7,4.1,2.5,6.2c2.9,0.1,5.8,0.1,8.7,0.2c-0.4-6-0.8-12-1.2-18 C55.7,476,55.4,470,55,464c-0.5,1-1.4,2.5-2.6,4.3c-2.3,3.4-12.2,17.8-27,18.5c-2,0.1-5.2-0.1-9.3-1.6C9.1,484.9,3.1,488,0.9,493.1z" fill="#418343"/></g><g id="change1_2"><path d="M83.8,174c8.8-0.9,16.9-2.1,24.4-3.4c0-1.2,0-2.3,0-3.5c2.1-1.5,6.2-3.9,11.8-4.8c7-1.1,12.5,0.7,15,1.7 c0.9,5.2,2.9,19.9-5.6,28.4c-6,5.9-14.6,6.4-33.1,4.9c-14.8-1.2-34.7-3.5-58.3-8.3c-0.2,0.2-5.4,4.9-11.3,3.1 c-6.6-2.1-7.5-10.2-7.6-11.4c-0.4-4.7,1.2-11.2,6.4-13.6c0.3-0.1,0.6-0.3,0.9-0.4c-2.1-3.8-4.2-8.3-6.5-13.5c1-1.1,2.3-2.3,3.9-3.5 c2.3-1.7,4.6-2.8,6.4-3.5c9.8-18.3,19.7-36.6,29.5-54.9c0-1.4,0.1-2.9,0.1-4.3c-0.4-0.2-0.8-0.5-1.2-0.7c0-4.5,0-9.1,0-13.6 c-4.9-4.1-7.2-12.8-6.9-24.2c-1.6,0-2.6-0.5-3-0.8c-3.5-2.6-2.3-11.4,1.8-12.8c0.9-0.3,1.8-0.2,2.6,0c0.6-3.2,1.2-6.5,2.1-10 c2.7,0.4,5.6,0.7,8.5,1c8.3,0.7,16.1,0.8,23.1,0.4c-2.3,2.9-3.1,4.8-2.5,5.9c1.1,1.8,6.2,1.2,15.5-1.9c-0.2,0.7-1.6,5.6-4,11.9 c1,0.1,2,0.4,2.7,1.1c2.7,2.7,1,10.1-3.2,11.5c-1.9,0.6-3.8-0.2-4.8-0.7c-3,5.8-6.8,11.5-11.1,15.5c4.5,5.6,4.1,9.1,3.8,10.5 c-0.5,2.1-1.8,3.3-4.3,6.2l0,0h-0.1c-0.6,0.7-1.2,1.4-1.8,2.2c-3.1,4-5.3,7.6-6.5,9.9c-5.1,40-11.4,65.7-18.7,77.2 c7.3,0,15.1-0.2,23.4-0.8c2.2-0.2,4.4-0.4,6.6-0.6 M83.8,174c-0.7,0.1-1.3,0.1-2,0.2" fill="#E8AF7A"/></g><g id="change2_2"><path d="M101.6,28.2l-2.7,11.9c-4.2,5.3-6.6,7.8-7.4,7.3c-1-0.6,1.2-6.6,6.6-18.1L101.6,28.2z M54.9,23.9 c-1.1,0.8-1.5,1.9-1.6,2.2c-0.8,10.2-0.9,15.4-0.3,15.4c0.6,0.1,2.2-6.1,4.5-18.5C57.2,23,56,23.1,54.9,23.9z" fill="#5E3023"/></g><g id="change4_2"><path d="M97.5,55.9c0,1.7-1.4,3.1-3.1,3.1s-3.1-1.4-3.1-3.1c0-1.7,1.4-3.1,3.1-3.1S97.5,54.2,97.5,55.9z M47.4,45.3 c-1.7,0-3.1,1.4-3.1,3.1c0,1.7,1.4,3.1,3.1,3.1c1.7,0,3.1-1.4,3.1-3.1S49.1,45.3,47.4,45.3z" fill="#F3E9DC"/></g><g id="change2_3"><path d="M63.2,37c1.3,0.4,0.7,2.5,0,3.2c-0.4,0.5-1.2,0.7-1.7,0.4c-0.4-0.2-0.6-0.7-0.6-1.1 C60.8,38.4,61.8,36.5,63.2,37z M78.8,43.9c0.1,0.4,0.3,0.8,0.7,1c0.6,0.3,1.3-0.1,1.6-0.6c0.6-0.8,0.9-2.9-0.4-3.2 C79.4,40.8,78.6,42.8,78.8,43.9z M77,132.6c0.2,0.4,0.5,0.8,0.9,0.9c0.6,0.1,1.3-0.3,1.5-0.9c0.4-0.9,0.4-3-1-3 C77,129.5,76.6,131.6,77,132.6z M75.6,111.9c0.2,0.4,0.5,0.8,0.9,0.9c0.6,0.1,1.3-0.3,1.5-0.9c0.4-0.9,0.4-3-1-3 C75.6,108.8,75.2,110.8,75.6,111.9z M79.2,151.5c0.2,0.4,0.5,0.8,0.9,0.9c0.6,0.1,1.3-0.3,1.5-0.9c0.4-0.9,0.4-3-1-3 C79.2,148.4,78.8,150.4,79.2,151.5z" fill="#5E3023"/></g><g id="change2_4"><path d="M72.6,65.5c3-0.4,5.7,1.1,7.3,3.6c0.2,0.3-0.1,0.6-0.3,0.7c-1.2,2-2.8,3.9-4.3,5.7c-0.6,0.7-1.9-0.3-1.3-1 c1.4-1.9,2.9-3.8,4.5-5.5c-0.7-0.8-1.5-1.3-2.3-1.6c-1.1,2-2.4,3.8-3.6,5.7c-0.6,0.9-2,0.1-1.4-0.8c1.2-1.8,2.3-3.5,3.5-5.2 c-3.5-0.3-7,2.8-9.5,5.6v0.1c-0.4,2.9-0.7,5.9-1.4,8.6c-0.2,0.8-1.6,0.7-1.5-0.2c0.2-2.8,0.9-5.6,1.5-8.4c-0.1-0.1-0.2-0.3-0.2-0.4 c-0.7-0.5-1.5-0.9-2.3-0.5c0,0.6,0,1.2,0,1.8c0,0.1,0,0.2,0,0.3c-0.1,5.7-0.5,11.4-0.8,17.1c-0.1,1.1-1.7,1.1-1.7,0 c0.3-5.6,0.4-11.3,0.9-17c-0.3-0.2-0.7-0.5-1-0.7c-0.5-0.4-0.2-1.4,0.5-1.1c0.2,0.1,0.4,0.2,0.7,0.3c0-0.4,0.1-0.8,0.1-1.1 c0-0.2,0.2-0.4,0.3-0.5c0-0.1,0.1-0.3,0.3-0.4c1.3-0.9,2.6-0.2,3.7,0.7C66.5,68.6,69,66,72.6,65.5z M77.6,78c1.6-1.5,3.1-3.3,4.4-5 c0.5-0.7-0.6-1.4-1.1-0.9c-1.6,1.5-3.2,3.2-4.5,4.9C75.8,77.8,77,78.6,77.6,78z M82.2,75.8c-1.5,1.4-3,2.7-4.4,4.2 c-0.7,0.8,0.4,1.9,1.2,1.2c1.4-1.4,2.8-2.9,4.2-4.4C83.8,76.1,82.9,75.1,82.2,75.8z M50.3,43.5c0.1-1,0-6.7,2.1-5.3 c0.6,0.4,1.2-0.5,0.7-0.9c-1.1-1-2.5-0.7-3.4,0.4c-1.2,1.5-1,4-1.1,5.8C48.6,44.5,50.3,44.5,50.3,43.5z M94.9,44.7 c3.4,0.7,0.2,5.3-0.3,7.1c-0.2,0.8,1,1.4,1.4,0.6c0.9-1.8,2.2-3.8,2-5.9c-0.2-1.7-1.3-2.9-3-3.1C94.3,43.3,94.2,44.6,94.9,44.7z M27.4,154.5c1.1-2.4,2.3-4.8,3.3-7.2c0.2-0.4,0-0.9-0.3-1.1c-0.1-0.2-0.4-0.4-0.7-0.3c-6.2,1.7-11.2,6.4-14.1,11.9 c-0.5,1,0.9,1.8,1.5,0.8c2.7-5,6.8-8.4,11.7-10.9c-1,2-1.9,3.9-2.8,5.9C25.5,154.6,27,155.5,27.4,154.5z M34,177.6 c-3.1-3.3-5.6-7-7.9-10.9c-0.5-0.9-1.9-0.1-1.4,0.8c2.8,5.4,8,13.9,14.2,15.9c6.1,2,10.4-3.2,13.4-7.7c0.4-0.6-0.6-1.2-1-0.6 c-1.5,2-3.5,4.8-5.9,6C40.1,183.6,37,180.8,34,177.6z M118.2,167.5c-3,0.7-6.1,1.3-9.1,2.2c-1,0.3-0.6,1.7,0.4,1.5 c3.1-0.6,6.1-1.6,9.1-2.4C119.4,168.6,119,167.3,118.2,167.5z M20.1,174.5c1.6,0.3,3.3,0.5,4.9,0.7c0.7,0.1,1.1-1,0.3-1.1 c-1.6-0.4-3.2-0.8-4.8-1.2C19.5,172.7,19.1,174.3,20.1,174.5z M19.6,179.6c1.6,0.4,3.3,0.4,5,0.6c0.7,0.1,0.9-1.1,0.2-1.3 c-1.6-0.3-3.3-0.8-4.9-0.8C18.9,178,18.7,179.3,19.6,179.6z M20.1,184.6c1.6,0.4,3.5,0.3,5.1,0.3c1,0,0.9-1.3,0-1.4 c-1.6-0.2-3.5-0.6-5.1-0.3C19.3,183.2,19.4,184.4,20.1,184.6z M21.8,188.4c1.1,0,2.2-0.1,3.3-0.2c0.9-0.1,0.9-1.3,0-1.4 c-1.1,0-2.2-0.1-3.3-0.1S20.7,188.4,21.8,188.4z M29.9,183.9c-0.4-0.1-0.6-0.1-1-0.1c-0.7,0-0.9,1-0.4,1.3c0.4,0.2,0.5,0.3,0.9,0.4 C30.4,185.9,30.9,184.2,29.9,183.9z M29.6,178.8c-0.3,0-0.5,0-0.8,0c-1.1,0-1.1,1.7,0,1.7c0.3,0,0.5,0,0.8,0 C30.6,180.5,30.6,178.8,29.6,178.8z M68.8,76c-0.3,0.5-0.6,0.8-0.7,1.3c-0.2,0.5,0.5,1.2,1,0.8c0.5-0.4,0.8-0.8,1.1-1.3 C70.9,76,69.4,75.1,68.8,76z M72.3,80.1c0.4-0.3,0.6-0.6,0.9-1c0.6-0.9-0.8-1.7-1.5-0.8c-0.2,0.3-0.4,0.6-0.5,1 C71.1,79.9,71.8,80.5,72.3,80.1z M75.4,80.2c-0.3,0.3-0.5,0.6-0.7,1c-0.3,0.6,0.3,1.4,1,1c0.4-0.2,0.6-0.5,0.9-0.8 C77.3,80.6,76.1,79.4,75.4,80.2z M129.7,192c0.6-3.2-0.4-6.7-1.8-9.5c-0.4-0.9-1.7-0.1-1.3,0.8c1.2,2.8,1.4,5.5,1.6,8.5 C128.3,192.6,129.6,192.9,129.7,192z M130,184.3c0.1,0.6,0.2,1.1,0.4,1.7c0.3,0.7,1.5,0.7,1.4-0.2c-0.1-0.7-0.2-1.3-0.4-1.9 C131.2,183,129.8,183.4,130,184.3z M42,178.1c1.9,0.1,3.9-1.2,4.3-3.1c0.2-0.8-0.9-1.4-1.4-0.6c-0.6,1.1-1.4,2.1-2.8,2 c-1.4,0-2.4-1.1-2.7-2.3c-0.2-0.9-1.6-0.5-1.4,0.4C38.5,176.4,40.1,178,42,178.1z M38,131.8c-2.1-5.9-4.2-11.8-6.5-17.6 c-0.2-0.7-1.3-0.4-1.1,0.3c1.9,6,3.9,11.9,5.9,17.8C36.7,133.3,38.4,132.9,38,131.8z M69.9,101.1c0.6,17.7,1.9,35.5,2.9,53.2 c0,0.5,0.4,0.8,0.8,0.8l0,0l0,0c0.1,0,0.2,0,0.2,0c0.8-0.1,1.6,0,2.3-0.3c0.4-0.1,0.5-0.4,0.5-0.8l0,0c-0.9-18.2-2.2-36.4-3.4-54.6 c-0.1-1.1-1.8-1.1-1.7,0c1.2,18,2.4,36.1,3.9,54.1c-0.3,0-0.7,0.1-1,0.1c-1-17.5-1.7-35-3-52.5C71.3,100.2,69.8,100.1,69.9,101.1z M14.7,154c4.9-5.8,10.1-9.8,17.4-12.3c0.8-0.3,0.5-1.6-0.4-1.4c-7.2,1.8-14.2,6.4-18.2,12.7C13,153.8,14.1,154.6,14.7,154z M138.6,161.3c0.9,0.5,1.8-0.9,0.8-1.4c-9.9-5.3-21.3-5-31,0.4c-1.3-14.7-2.7-29.5-4.4-44.2c-0.1-0.9-1.5-0.9-1.4,0 c1.3,17,3,34.1,4.7,51.1c0,0.1,0.1,0.3,0.1,0.4c0.1,0.3,0.4,0.6,0.8,0.4c0.3,0,0.5-0.1,0.7-0.4c9.7-5.9,18.9-5,29.5-2.2 c1,0.3,1.4-1.2,0.4-1.5c-10.5-3.3-20.7-4-30,2.2c-0.1-1.4-0.3-2.8-0.4-4.3C118.1,156.5,128.9,156.4,138.6,161.3z M129.9,371.1 C89.6,383.4,48.4,384.5,7.8,373c-1-0.3-1.5,1.3-0.4,1.6c40,11.7,83.4,11.3,122.9-2.3C131,372.1,130.7,370.9,129.9,371.1z M26.9,195 c-1-0.3-1.5,1.3-0.4,1.6c30,7.9,61.1,9,91.5,2.4c0.7-0.2,0.4-1.3-0.3-1.1C87.2,203.4,56.9,202.8,26.9,195z M117.7,201.9 c-28.4,9.1-63.4,4.9-91.8-1.8c-1.1-0.2-1.5,1.4-0.4,1.6c28.8,6.8,64,11.2,92.6,1.5C118.8,202.9,118.5,201.6,117.7,201.9z M40,387.1 c-2.4,0.8-4.6,1.3-6.7-0.5c-0.7-0.6-1.6,0.3-1,1c2.1,2.1,6,2.9,8.4,0.8C41.3,387.8,40.7,386.8,40,387.1z M106,385.8 c-2.5,1.2-5.2,1.4-7.9,0.6c-0.8-0.3-1.2,1-0.4,1.3c3.1,1,6.2,0.9,9.1-0.5C107.8,386.8,106.9,385.4,106,385.8z M64.9,51.8 c-0.1,0.3-0.1,0.7,0.4,0.9c0.1,0.1,0.2,0.1,0.3,0.1l0,0c1,0.3,2.1,0.2,3,0.6c1,0.5,1.8-1,0.8-1.5c-0.8-0.4-1.8-0.3-2.6-0.5 C68.9,47.2,71,43,73,38.7c0.4-0.8-0.8-1.5-1.2-0.7c-2.3,4.5-4.6,9-6.8,13.5C64.9,51.7,64.9,51.8,64.9,51.8z M70.8,61.1 c-2.6-2.9-7.1-5.3-11.1-4.2c-0.8,0.2-0.6,1.4,0.2,1.4c3.9,0.3,7.1,0.8,10,3.7C70.5,62.5,71.4,61.6,70.8,61.1z M64.3,60.8 c-0.7,0.1-0.5,1,0,1.2c0.4,0.2,0.9,0.2,1.3,0.3c1,0.1,1-1.4,0-1.5C65.2,60.8,64.8,60.8,64.3,60.8z M59.6,33.8c3.3-0.3,6.4,0.6,8.8,3 c0.5,0.5,1.3-0.3,0.8-0.8c-2.4-3-6.1-4.4-9.8-3.8C58.5,32.4,58.7,33.9,59.6,33.8z M76.6,39.2c3.9-0.9,7.7-0.2,11.1,1.8 c0.9,0.5,1.7-0.8,0.8-1.4c-3.7-2.5-8.1-2.9-12.3-1.6C75.5,38.2,75.8,39.4,76.6,39.2z M57.2,47.8c0.3-0.4,0.5-0.8,0.7-1.2 c0.4-0.8-0.7-1.5-1.2-0.7c-0.3,0.4-0.5,0.8-0.7,1.2C55.5,47.9,56.6,48.6,57.2,47.8z M58.8,48.5c0.4-0.4,0.7-0.9,0.9-1.4 c0.5-0.9-0.8-1.6-1.3-0.8c-0.3,0.5-0.6,0.9-0.8,1.5C57.4,48.5,58.3,49,58.8,48.5z M80.2,51.2c-0.5,0.6-1,1.1-1.3,1.7 c-0.4,0.8,0.5,1.5,1.2,0.9c0.5-0.5,0.9-1.1,1.3-1.7C81.9,51.5,80.7,50.5,80.2,51.2z M82.2,52.2c-0.3,0.4-0.7,0.8-0.9,1.2 c-0.4,0.8,0.5,1.5,1.2,0.9c0.4-0.3,0.7-0.8,1-1.2C84,52.4,82.8,51.5,82.2,52.2z M38,217.2c-3.7,48.9-8.3,97.9-10.6,146.9 c0,0.9,1.4,0.9,1.5,0c4.8-48.8,7.3-98,10.7-146.9C39.7,216.2,38.1,216.2,38,217.2z M68.9,227.6c-0.6,47.2-1.4,94.5-0.9,141.7 c0,1,1.5,1,1.5,0c1.1-47.2,0.8-94.5,0.8-141.7C70.4,226.7,69,226.7,68.9,227.6z M99,219.1c2.4,45.5,5,91,7.6,136.5 c0.1,1.1,1.7,1.1,1.7,0c-2.6-45.5-5.1-91-7.9-136.5C100.4,218.1,98.9,218.1,99,219.1z" fill="#5E3023"/></g></svg>